<svg xmlns="http://www.w3.org/2000/svg" viewBox="0 0 512 512">
  <defs>
    <linearGradient id="bg" x1="0" y1="0" x2="1" y2="1">
      <stop offset="0" stop-color="#0f2038"/>
      <stop offset="1" stop-color="#07111d"/>
    </linearGradient>
    <linearGradient id="tank" x1="0" y1="0" x2="1" y2="1">
      <stop offset="0" stop-color="#eaa868"/>
      <stop offset="1" stop-color="#c8763a"/>
    </linearGradient>
    <linearGradient id="skin" x1="0" y1="0" x2="0" y2="1">
      <stop offset="0" stop-color="#ecb98f"/>
      <stop offset="1" stop-color="#d9a377"/>
    </linearGradient>
  </defs>
  <rect width="512" height="512" rx="96" fill="url(#bg)"/>
  <g transform="translate(345,120)">
    <rect x="-30" y="0" width="60" height="230" rx="12" fill="url(#tank)" stroke="#f8d9ae" stroke-width="5"/>
    <rect x="-40" y="-26" width="80" height="30" rx="7" fill="url(#tank)" stroke="#f8d9ae" stroke-width="5"/>
    <rect x="-15" y="-54" width="30" height="30" rx="5" fill="url(#tank)" stroke="#f8d9ae" stroke-width="5"/>
    <circle cx="0" cy="50" r="8" fill="#07111d" opacity="0.4"/>
    <circle cx="0" cy="110" r="8" fill="#07111d" opacity="0.4"/>
    <circle cx="0" cy="170" r="8" fill="#07111d" opacity="0.4"/>
    <path d="M -30 90 H -108" stroke="#f8d9ae" stroke-width="12" fill="none" stroke-linecap="round"/>
  </g>
  <g transform="translate(115,220)">
    <rect x="-38" y="0" width="76" height="105" rx="12" fill="url(#tank)" stroke="#f8d9ae" stroke-width="4" opacity="0.9"/>
    <ellipse cx="0" cy="0" rx="38" ry="11" fill="#f8d9ae" opacity="0.85"/>
  </g>
  <rect x="55" y="392" width="402" height="12" rx="6" fill="#f8d9ae" opacity="0.5"/>
  <g transform="translate(230,300)">
    <path d="M -18 90 L -26 150 L 4 150 L 6 100 Z" fill="#2c3f54" stroke="#f8d9ae" stroke-width="4"/>
    <path d="M 18 92 L 44 150 L 74 150 L 46 88 Z" fill="#33485f" stroke="#f8d9ae" stroke-width="4"/>
    <rect x="-32" y="146" width="34" height="16" rx="6" fill="#1c2833" stroke="#f8d9ae" stroke-width="3"/>
    <rect x="42" y="146" width="36" height="16" rx="6" fill="#1c2833" stroke="#f8d9ae" stroke-width="3"/>
    <path d="M -30 30 Q -34 78 -6 100 L 40 96 Q 50 55 34 20 Q 2 4 -30 30 Z" fill="#3f5872" stroke="#f8d9ae" stroke-width="5"/>
    <path d="M -20 45 L 24 38" stroke="#eaa868" stroke-width="8" stroke-linecap="round"/>
    <path d="M -18 70 L 30 62" stroke="#eaa868" stroke-width="8" stroke-linecap="round"/>
    <circle cx="-8" cy="-4" r="24" fill="url(#skin)" stroke="#07111d" stroke-width="2"/>
    <path d="M -38 -10 Q -38 -46 -8 -46 Q 22 -46 22 -10 Q 22 -18 -8 -18 Q -38 -18 -38 -10 Z" fill="#eaa868" stroke="#f8d9ae" stroke-width="4"/>
    <rect x="-42" y="-14" width="68" height="12" rx="6" fill="#c8763a" stroke="#f8d9ae" stroke-width="3"/>
    <path d="M -22 40 Q -60 55 -68 92" stroke="#3f5872" stroke-width="17" fill="none" stroke-linecap="round"/>
    <circle cx="-70" cy="98" r="11" fill="url(#skin)"/>
    <circle cx="-70" cy="98" r="20" fill="none" stroke="#f8d9ae" stroke-width="7"/>
    <path d="M 34 34 Q 68 24 78 -6" stroke="#33485f" stroke-width="17" fill="none" stroke-linecap="round"/>
    <circle cx="80" cy="-12" r="11" fill="url(#skin)"/>
    <g transform="translate(92,-22) rotate(30)">
      <rect x="-6" y="-3" width="52" height="12" rx="5" fill="#f8d9ae"/>
      <circle cx="-6" cy="3" r="13" fill="none" stroke="#f8d9ae" stroke-width="8"/>
    </g>
  </g>
</svg>
